<?xml version="1.0" encoding="UTF-8"?>
<svg width="325px" height="395px" viewBox="0 0 325 395" version="1.1" xmlns="http://www.w3.org/2000/svg" xmlns:xlink="http://www.w3.org/1999/xlink">
    <!-- Generator: Sketch 55.2 (78181) - https://sketchapp.com -->
    <title>Group 3</title>
    <desc>Created with Sketch.</desc>
    <defs>
        <polygon id="path-1" points="0 0 325 0 325 395 0 395"></polygon>
    </defs>
    <g id="Page-1" stroke="none" stroke-width="1" fill="none" fill-rule="evenodd" opacity="0.1">
        <g id="2.Homepage-full" transform="translate(-1443.000000, -125.000000)">
            <g id="Group-3" transform="translate(1443.000000, 125.000000)">
                <mask id="mask-2" fill="white">
                    <use xlink:href="#path-1"></use>
                </mask>
                <g id="Clip-2"></g>
                <path d="M190.272417,165.851764 C182.582908,172.038297 175.47656,178.130916 168.229549,184.754732 C168.059583,184.660819 167.889617,184.590384 167.722581,184.499406 C167.174586,184.205927 166.6178,183.927122 166.055153,183.662991 C165.9057,183.595491 165.756247,183.522122 165.606794,183.454621 C164.03021,182.747338 162.406739,182.157445 160.73052,181.740705 C159.877758,181.532335 159.027926,181.376792 158.178095,181.250596 C159.356137,179.809615 160.528318,178.333417 161.691708,176.819066 C200.279915,126.625389 246.29389,101.063387 260.512448,93.9582656 C266.578486,100.790452 280.782393,118.026461 294.722558,140.832697 C271.595422,136.456929 229.127296,134.581599 190.272417,165.851764 L190.272417,165.851764 Z M268.790979,221.457189 C263.226048,224.653173 260.738093,231.332751 262.836298,237.393088 L265.426818,245.548863 L257.165871,254.520509 L263.30517,262.817155 L256.893339,272.261302 L256.840591,274.36848 C256.752677,278.048704 255.287451,286.68285 251.3372,289.852421 C250.405316,290.606661 248.767192,291.522315 245.397171,290.859053 C231.287039,288.073939 222.217287,285.834696 220.450224,285.388608 C208.819255,281.262296 200.467464,274.001631 200.385411,273.925327 L190.911256,284.654911 C191.239467,284.945455 197.290853,290.251552 206.641929,294.997104 C203.520996,299.777873 200.751718,306.313646 201.680672,313.741594 C202.987654,324.215852 211.002443,333.070107 225.499395,340.060771 C244.104841,349.032418 251.3372,360.395916 254.047869,368.994845 C235.383813,357.99526 198.624209,341.745339 158.86089,353.901231 C131.683868,362.21255 111.64836,362.115702 100.919971,353.63123 C95.149909,349.067635 93.0048173,342.807733 92.2223863,338.329246 C103.844563,336.269025 127.04203,330.352493 137.826098,314.900835 C142.62618,308.015823 144.481157,300.200483 143.382237,291.604489 C145.583007,290.228073 147.713447,288.68731 149.714946,286.917633 C158.046224,279.539576 162.975247,269.754993 164.440473,257.783994 C170.055221,256.328339 175.145418,251.917353 179.626081,244.595057 L167.432466,237.111348 C164.713005,241.554617 161.967171,244.148969 159.989115,243.999295 C155.927507,243.732229 149.914217,235.109823 147.314905,229.263725 L146.866546,228.403832 C146.822589,228.336332 145.348571,225.874045 143.900927,222.299474 L143.569786,221.427842 C143.068679,220.110122 142.640832,218.836424 142.289178,217.606748 L142.289178,217.603813 C142.157308,217.134247 142.04302,216.67642 141.931663,216.221528 C140.472297,210.120104 140.504532,203.111831 146.031367,198.68617 C148.31712,196.854863 150.58236,195.783665 152.879836,195.434425 C153.002915,195.416817 153.125994,195.402143 153.252003,195.387469 C153.509883,195.358121 153.770693,195.343447 154.031504,195.331708 C154.280592,195.322904 154.529681,195.314099 154.787561,195.322904 C154.931153,195.325838 155.074745,195.337577 155.221268,195.346382 C155.552409,195.36986 155.889411,195.399208 156.238135,195.452034 C156.343631,195.469643 156.449128,195.493121 156.554624,195.507795 C156.929722,195.57823 157.313611,195.657469 157.706292,195.766056 C157.794205,195.789535 157.876258,195.818883 157.961241,195.842361 C158.350992,195.959752 158.749533,196.097688 159.156866,196.256166 C159.265293,196.300188 159.37372,196.341275 159.482146,196.385297 C161.029426,197.033885 162.688062,198.011169 164.449265,199.428672 L165.073451,199.933455 C168.537247,202.885852 171.388578,206.78912 172.906552,210.258039 L186.005678,204.50879 C184.525799,201.124979 182.225393,197.45356 179.300801,194.037466 C185.832781,188.117999 192.285639,182.603533 199.230813,177.018632 C220.195274,160.143601 242.709946,154.294569 261.702212,153.161741 C262.991612,156.527943 267.548466,170.603185 262.393799,189.63235 L262.00991,191.052787 L262.215042,192.508442 C262.376217,193.653009 264.023131,202.906395 276.360339,217.113703 L268.790979,221.457189 Z M101.843064,248.782999 C114.599326,245.592885 124.703529,241.267007 134.113214,234.9308 C134.233362,235.142105 134.34472,235.335801 134.429703,235.482541 C135.065611,236.850152 137.166746,241.167225 140.325774,245.560602 C143.496525,249.977458 146.837241,253.252681 150.312759,255.383337 C149.372083,264.158353 146.084115,270.996409 140.278887,276.152831 C130.277251,285.036434 115.112156,286.914698 105.769871,287.146546 C107.12081,278.706096 107.51056,265.258898 101.843064,248.782999 L101.843064,248.782999 Z M67.8615295,266.115856 C60.887051,272.766086 51.6414714,275.74196 43.9050752,277.042072 C50.7388919,266.253791 57.8042144,249.126369 55.5360436,226.202741 L41.3028328,227.617309 C41.7277485,231.916773 41.7541226,235.957976 41.4845209,239.743853 C31.0755514,236.263194 24.036603,229.034812 22.7647863,220.20697 C21.1618285,209.078254 28.7136062,197.732364 42.9673302,189.849524 L36.0543912,177.309176 C31.7349033,179.698093 27.8989402,182.386359 24.5201277,185.288864 C16.9302541,179.348853 13.3873363,171.515904 14.5096999,162.914041 C16.1067968,150.714128 26.7677853,139.782043 41.666209,135.068774 L37.3555124,121.410271 C32.7781447,122.860056 28.5084744,124.802886 24.5845977,127.115499 C23.2248675,121.005271 23.7318359,113.421779 27.2454491,106.695245 C31.3803185,98.7771873 40.974622,89.6059752 63.1288477,90.8649992 L63.9405832,76.563778 C58.3961659,76.2526904 53.4349087,76.493343 48.9776895,77.1419312 C51.0319372,70.8262677 55.9756116,63.6771245 63.0350732,59.1017902 C70.6366686,54.1772162 83.1555644,50.4881878 99.6217805,60.9008151 L107.258541,48.7889456 C102.291423,45.6487226 97.5499501,43.4945883 93.0663568,42.0829554 C101.500201,32.2073942 112.779515,25.8036871 123.320355,25.4309691 C133.940317,25.0699901 143.408611,30.7106524 150.749396,41.7748027 L162.661688,33.8479406 C158.72609,27.9137996 154.166305,23.080204 149.152299,19.4058496 C157.530465,14.5605148 167.365065,12.9904033 176.212103,15.4614947 C186.439385,18.3170433 193.446098,25.874122 195.942844,36.7445763 L209.880079,33.5368531 C208.883725,29.1933671 207.339377,25.1844469 205.334947,21.5453099 C216.133666,17.5921507 228.459152,21.3750922 235.281247,29.111193 C243.975901,38.9691455 241.804436,51.952647 229.616681,64.2171254 C218.943971,58.1626581 207.614839,54.2241728 195.693756,52.4897131 C171.930711,49.0266635 145.679712,54.2681946 117.670441,68.0587627 C87.4105823,82.9586807 65.6431765,110.43123 57.9448761,143.432919 C50.9586759,173.388299 56.3448487,203.731071 72.3509837,224.609152 C74.862382,227.88144 77.0572914,231.077424 79.0031123,234.194169 C79.2434094,248.087454 75.5070817,258.828778 67.8615295,266.115856 L67.8615295,266.115856 Z M150.356715,168.085137 C126.20099,199.507911 96.8759459,214.680764 86.3116624,219.417512 C85.4676919,218.246532 84.6032082,217.066747 83.6947677,215.881092 C70.270362,198.378018 65.8512386,172.513732 71.8733198,146.693469 C78.5899184,117.885591 97.5851156,93.9083742 123.979707,80.9131336 C149.34864,68.4226764 172.783473,63.6213635 193.633647,66.6647385 C210.26983,69.0859385 225.681083,76.6019302 239.580222,88.9984741 C217.932965,101.706106 182.084731,126.813216 150.356715,168.085137 L150.356715,168.085137 Z M127.959262,219.247294 C128.105785,219.875339 128.26696,220.491644 128.431065,221.099145 C128.46037,221.201863 128.480883,221.30458 128.510187,221.407298 C120.577451,227.191765 111.282053,231.884491 96.2781335,235.397432 L94.3909216,231.500033 C101.637932,228.122093 113.526781,221.797625 126.833968,211.596302 C126.962908,214.032176 127.338006,216.570768 127.94754,219.194468 C127.953401,219.212077 127.956332,219.226751 127.959262,219.247294 L127.959262,219.247294 Z M325,165.743177 L315.777864,148.715538 C295.38191,111.05047 269.268642,81.4648737 266.056866,79.3254133 L262.839228,77.171279 L259.278728,78.6973687 C258.833299,78.8851952 256.544615,79.8859578 252.817079,81.7612873 C249.230204,78.2953028 245.540763,75.1257319 241.757548,72.246705 C260.741024,51.6122116 256.289666,31.2917404 246.003775,19.6318282 C239.331133,12.0659451 229.558072,7.04158832 219.193059,5.84126008 C211.005373,4.89038882 203.008167,6.3695219 195.948705,10.020398 C191.45339,6.21104335 186.105313,3.35255998 180.050997,1.66505696 C164.645605,-2.63734205 147.291461,1.56527417 134.394537,12.3388804 C130.66114,11.3909439 126.787081,10.9742041 122.816317,11.1180087 C105.608696,11.722575 87.9732293,22.8982471 76.7964811,39.9493646 C67.3985179,40.4746916 60.0049847,44.0052414 55.2664419,47.0750295 C42.8882079,55.0958048 34.287328,69.2268083 33.6543501,81.7055263 C23.1662584,86.7797745 17.4870402,94.4777231 14.5712394,100.056755 C8.61069772,111.476014 8.05977253,125.607018 12.5843922,136.553777 C5.90002857,143.538572 1.51314024,152.011304 0.332167633,161.050451 C-1.4290347,174.48591 3.8662941,186.944084 14.9580592,195.977361 C9.59239951,204.065637 7.28906336,213.090109 8.60776726,222.255452 C10.7616503,237.190587 22.2343743,249.073543 38.8940003,253.945291 C33.9737695,270.28032 24.1508906,279.061206 23.5735914,279.565989 L10.7587199,290.542096 L27.5472858,292.13862 C27.8374007,292.167968 29.6689339,292.329381 32.5495693,292.329381 C42.0295852,292.329381 62.8738983,290.580248 77.6404516,276.569571 C83.0852335,271.404344 87.1116761,265.164985 89.7256403,257.907255 C95.272988,277.661312 90.3879227,290.524487 90.086086,291.278727 L86.399576,300.106569 L95.8971745,301.160158 C96.2898553,301.20418 99.211517,301.509398 103.657014,301.509398 C110.051263,301.509398 119.595749,300.863745 129.275036,297.908413 C128.999573,301.101462 127.968054,304.012772 126.113077,306.677559 C117.333439,319.288343 92.7410765,324.215852 84.0141871,325.046397 L78.0038278,325.609876 L77.5466771,331.634995 C77.4851376,332.468475 76.1840164,352.149162 91.8619406,364.718859 C106.625563,376.557793 130.570296,377.526273 163.036786,367.600821 C211.650073,352.744924 257.476499,388.396727 257.924858,388.748902 L266.288372,395 L267.519162,390.85021 C270.379284,381.197693 270.22104,370.823218 266.590208,361.434831 C262.297094,350.32079 252.667625,337.263918 231.706094,327.156509 C224.960191,323.901829 216.74027,318.63682 215.878717,312.010069 C215.301418,307.584409 218.129305,303.035488 220.561581,300.16233 C224.848834,301.174832 232.415264,302.894618 242.630824,304.910817 C251.140859,306.595385 256.925574,303.725163 260.286804,301.028093 C268.60636,294.345581 270.552181,282.113385 271.003471,276.948158 L280.843932,262.462045 L275.703918,255.518337 L281.576546,249.141043 L276.603567,233.48395 L299.484545,220.34197 L292.800181,213.724023 C281.260057,202.295959 277.684904,194.322141 276.69148,191.469527 C280.876167,174.515258 278.795546,160.886103 276.714924,153.176415 C294.526218,154.256417 306.675877,158.720229 306.933756,158.820012 L325,165.743177 Z" id="Fill-1" fill="#698C95" mask="url(#mask-2)"></path>
            </g>
        </g>
    </g>
</svg>